<?xml version="1.0" encoding="utf-8"?>
<!-- Generator: Adobe Illustrator 26.4.1, SVG Export Plug-In . SVG Version: 6.00 Build 0)  -->
<svg version="1.1" xmlns="http://www.w3.org/2000/svg" xmlns:xlink="http://www.w3.org/1999/xlink" x="0px" y="0px"
	 viewBox="0 0 320 320" style="enable-background:new 0 0 320 320;" xml:space="preserve">
<style type="text/css">
	.st0{fill:#E5D5C7;stroke:#E5D5C7;stroke-width:10;stroke-linecap:round;stroke-linejoin:round;stroke-miterlimit:10;}
	.st1{fill:none;stroke:#BE3C50;stroke-width:4;stroke-linejoin:round;stroke-miterlimit:10;}
	.st2{fill:none;stroke:#BE3C50;stroke-width:26;stroke-miterlimit:10;}
	.st3{fill:#BE3C50;stroke:#BE3C50;stroke-width:10;stroke-linecap:round;stroke-linejoin:round;stroke-miterlimit:10;}
</style>
<g id="down">
	<rect x="10.1" y="26.75" class="st0" width="299.81" height="266.5"/>
	<polygon class="st1" points="160,146.5 137.75,174.67 182.25,174.67 	"/>
	<polygon class="st1" points="160,146.5 182.25,118.33 137.75,118.33 	"/>
	<circle class="st2" cx="90" cy="225" r="34.38"/>
	<circle class="st2" cx="230" cy="225" r="34.38"/>
</g>
<g id="up">
	<polygon class="st1" points="22.54,76.5 10.1,99.96 34.98,99.96 	"/>
	<polygon class="st1" points="172.64,76.5 160.19,99.96 185.08,99.96 	"/>
	<polygon class="st1" points="197.52,76.5 185.08,99.96 209.97,99.96 	"/>
	<polygon class="st1" points="222.41,76.5 209.97,99.96 234.86,99.96 	"/>
	<polygon class="st1" points="247.3,76.5 234.86,99.96 259.74,99.96 	"/>
	<polygon class="st1" points="272.19,76.5 259.74,99.96 284.63,99.96 	"/>
	<polygon class="st1" points="297.08,76.5 284.63,99.96 309.52,99.96 	"/>
	<polygon class="st1" points="147.75,76.5 135.3,99.96 160.19,99.96 	"/>
	<polygon class="st1" points="122.09,76.5 109.65,99.96 134.54,99.96 	"/>
	<polygon class="st1" points="97.21,76.5 84.76,99.96 109.65,99.96 	"/>
	<polygon class="st1" points="72.32,76.5 59.87,99.96 84.76,99.96 	"/>
	<polygon class="st1" points="47.43,76.5 34.98,99.96 59.87,99.96 	"/>
	<polygon class="st1" points="22.92,53.04 10.48,76.5 35.37,76.5 	"/>
	<polygon class="st1" points="173.02,53.04 160.57,76.5 185.46,76.5 	"/>
	<polygon class="st1" points="197.91,53.04 185.46,76.5 210.35,76.5 	"/>
	<polygon class="st1" points="222.79,53.04 210.35,76.5 235.24,76.5 	"/>
	<polygon class="st1" points="247.68,53.04 235.24,76.5 260.13,76.5 	"/>
	<polygon class="st1" points="272.57,53.04 260.13,76.5 285.02,76.5 	"/>
	<polygon class="st1" points="297.46,53.04 285.02,76.5 309.9,76.5 	"/>
	<polygon class="st1" points="148.13,53.04 135.68,76.5 160.57,76.5 	"/>
	<polygon class="st1" points="122.48,53.04 110.03,76.5 134.92,76.5 	"/>
	<polygon class="st1" points="97.59,53.04 85.14,76.5 110.03,76.5 	"/>
	<polygon class="st1" points="72.7,53.04 60.26,76.5 85.14,76.5 	"/>
	<polygon class="st1" points="47.81,53.04 35.37,76.5 60.26,76.5 	"/>
	<rect x="11" y="26.81" class="st3" width="298" height="26.37"/>
</g>
</svg>
